<?xml version="1.0" encoding="UTF-8" standalone="no"?>
<!-- Created with Inkscape (http://www.inkscape.org/) -->

<svg
   width="158.08598mm"
   height="158.71957mm"
   viewBox="0 0 158.08598 158.71957"
   version="1.1"
   id="svg5"
   inkscape:version="1.1.1 (3bf5ae0d25, 2021-09-20)"
   sodipodi:docname="logo-name.svg"
   xmlns:inkscape="http://www.inkscape.org/namespaces/inkscape"
   xmlns:sodipodi="http://sodipodi.sourceforge.net/DTD/sodipodi-0.dtd"
   xmlns="http://www.w3.org/2000/svg"
   xmlns:svg="http://www.w3.org/2000/svg">
  <sodipodi:namedview
     id="namedview7"
     pagecolor="#ffffff"
     bordercolor="#666666"
     borderopacity="1.0"
     inkscape:pageshadow="2"
     inkscape:pageopacity="0.0"
     inkscape:pagecheckerboard="0"
     inkscape:document-units="mm"
     showgrid="false"
     fit-margin-top="0"
     fit-margin-left="0"
     fit-margin-right="0"
     fit-margin-bottom="0"
     inkscape:zoom="0.74118967"
     inkscape:cx="248.24955"
     inkscape:cy="476.93595"
     inkscape:window-width="1920"
     inkscape:window-height="1017"
     inkscape:window-x="1272"
     inkscape:window-y="-8"
     inkscape:window-maximized="1"
     inkscape:current-layer="layer1" />
  <defs
     id="defs2">
    <rect
       x="64"
       y="264"
       width="257"
       height="97"
       id="rect22501" />
  </defs>
  <g
     inkscape:label="Слой 1"
     inkscape:groupmode="layer"
     id="layer1"
     transform="translate(-36.794155,2.0233142)">
    <path
       style="fill:#ff7f2a;stroke-width:15.8124;stroke-linecap:square"
       d=""
       id="path1998" />
    <path
       style="fill:#ff7f2a;stroke-width:15.8124;stroke-linecap:square"
       d=""
       id="path2076" />
    <path
       style="fill:#ff7f2a;stroke-width:11.1811;stroke-linecap:square"
       d=""
       id="path2690" />
    <path
       style="fill:#ff7f2a;stroke-width:11.1811;stroke-linecap:square"
       d=""
       id="path2768" />
    <path
       style="fill:#ff7f2a;stroke-width:11.1811;stroke-linecap:square"
       d=""
       id="path2807" />
    <path
       style="fill:#ff7f2a;stroke-width:11.1811;stroke-linecap:square"
       d=""
       id="path2963" />
    <path
       style="fill:#ff7f2a;stroke-width:11.1811;stroke-linecap:square"
       d=""
       id="path3002" />
    <path
       style="fill:#ff7f2a;stroke-width:11.1811;stroke-linecap:square"
       d=""
       id="path3041" />
    <path
       style="fill:#ff7f2a;stroke-width:11.1811;stroke-linecap:square"
       d=""
       id="path3197" />
    <path
       style="fill:#ff7f2a;stroke-width:11.1811;stroke-linecap:square"
       d=""
       id="path3236" />
    <path
       style="fill:#ff7f2a;stroke-width:11.1811;stroke-linecap:square"
       d=""
       id="path3431" />
    <path
       style="fill:#ff7f2a;stroke-width:11.1811;stroke-linecap:square"
       d=""
       id="path3470" />
    <path
       style="fill:#ff7f2a;stroke-width:11.1811;stroke-linecap:square"
       d=""
       id="path3548" />
    <path
       style="fill:#ff7f2a;stroke-width:11.1811;stroke-linecap:square"
       d=""
       id="path3587" />
    <path
       style="fill:#ff7f2a;stroke-width:11.1811;stroke-linecap:square"
       d=""
       id="path3743" />
    <path
       style="fill:#ff7f2a;stroke-width:11.1811;stroke-linecap:square"
       d=""
       id="path4133" />
    <path
       style="fill:#ff7f2a;stroke-width:11.1811;stroke-linecap:square"
       d=""
       id="path4250" />
    <rect
       style="fill:#f6f0ee;fill-opacity:1;stroke-width:1.75415;stroke-linecap:square"
       id="rect20907"
       width="158.08598"
       height="158.71957"
       x="36.794155"
       y="-2.0233142"
       ry="46.208569" />
    <text
       xml:space="preserve"
       transform="matrix(0.26458333,0,0,0.26458333,36.79415,-2.023318)"
       id="text22499"
       style="font-style:normal;font-variant:normal;font-weight:normal;font-stretch:normal;font-size:26.6667px;line-height:1.25;font-family:Candara;-inkscape-font-specification:Candara;white-space:pre;shape-inside:url(#rect22501);fill:#000000;fill-opacity:1;stroke:none" />
    <path
       style="fill:#412b23;fill-opacity:1;stroke-width:0.369859"
       d="m 76.580058,108.36388 c -2.17452,-0.87753 -2.99238,-1.58256 -4.17319,-3.59747 -3.4815,-5.94074 -0.33594,-17.425358 8.62126,-31.476671 1.5223,-2.388074 3.50441,-5.28491 4.40467,-6.437402 0.90028,-1.152506 1.63684,-2.293605 1.63684,-2.535789 0,-0.242185 -0.47908,-1.046811 -1.06463,-1.788071 -2.84476,-3.601207 -6.69037,-9.617857 -9.13494,-14.292056 -8.62798,-16.497327 -7.66951,-26.973447 2.62305,-28.670361 4.29939,-0.708829 11.17581,1.208338 19.519064,5.44195 4.186058,2.124124 12.452458,7.368201 15.641318,9.922582 l 1.13896,0.912348 4.22399,-3.03671 c 17.18103,-12.351781 31.81715,-16.408896 38.10773,-10.563403 0.53149,0.49386 1.32207,1.848711 1.75685,3.010779 2.68745,7.182868 -1.67649,19.403095 -12.36569,34.627265 -2.86141,4.075398 -3.11537,4.572963 -2.61628,5.125858 1.80048,1.994539 7.3995,10.66489 9.69871,15.018945 5.95965,11.285865 7.47666,19.147128 4.73322,24.527726 -0.90041,1.76594 -1.41858,2.30169 -3.10274,3.20805 -7.31176,3.93497 -21.40179,-0.9917 -38.22721,-13.366368 l -2.17097,-1.596689 -1.71255,1.300345 c -7.45451,5.660219 -17.161482,11.075342 -23.978282,13.376512 -3.36677,1.13653 -4.60433,1.36923 -7.87777,1.48126 -3.21252,0.10996 -4.19415,0.008 -5.68141,-0.59263 z m 11.19134,-9.314515 c 4.06796,-1.394153 9.88671,-4.281692 13.352872,-6.62633 1.52567,-1.032017 3.61335,-2.433505 4.63926,-3.114427 1.02595,-0.680921 2.05271,-1.463812 2.28173,-1.739757 0.33017,-0.397841 -1.18451,-2.121757 -7.3158,-8.326373 l -7.732162,-7.824642 -1.0687,1.353984 c -3.8088,4.825576 -9.28715,14.753077 -10.94661,19.836733 -1.18423,3.627748 -1.60232,7.17672 -0.89932,7.633687 0.79731,0.51827 4.26619,-0.0199 7.68873,-1.192875 z m 63.833972,-1.252597 c -0.008,-4.863935 -3.4373,-12.608449 -9.6608,-21.821666 -3.53167,-5.228267 -2.11793,-5.661265 -11.11212,3.40339 l -7.83251,7.893867 2.0997,1.552773 c 8.79572,6.504671 20.55338,11.883798 25.40078,11.620838 l 1.10958,-0.0602 z M 121.33806,76.582849 c 4.41752,-4.101553 11.19421,-11.288882 11.51276,-12.210386 0.27808,-0.804458 -15.29638,-16.415886 -16.96289,-17.003154 -0.39327,-0.138532 -4.32255,3.524126 -11.33418,10.565221 -5.189068,5.210864 -5.858458,6.080758 -5.361918,6.968028 1.105668,1.975723 15.783448,16.435498 16.683288,16.435498 0.18775,0 2.64609,-2.13985 5.46294,-4.755207 z m -16.49598,-31.258585 4.04636,-3.877387 -4.03503,-2.789912 C 95.123798,31.929668 84.338078,27.357446 80.481538,28.325388 c -0.87107,0.218616 -0.89794,0.316734 -0.69171,2.52522 0.38278,4.099052 3.79872,12.396711 7.23316,17.570027 0.74275,1.118817 1.56251,2.450308 1.82167,2.958861 0.25917,0.508567 1.30179,2.055348 2.31692,3.437318 l 1.84571,2.512681 3.89422,-4.063922 c 2.141814,-2.235158 5.715072,-5.808756 7.940572,-7.941309 z m 36.29761,8.57426 c 7.27551,-10.838537 10.65524,-18.315773 10.65524,-23.573509 0,-1.408263 -0.15468,-1.959326 -0.59769,-2.129324 -0.78048,-0.299498 -4.82886,0.455671 -7.68526,1.433594 -4.64938,1.591765 -13.14395,6.304336 -18.51231,10.270181 l -2.02425,1.495409 7.84477,7.871764 c 4.31461,4.32948 7.93731,7.834412 8.05045,7.788743 0.11312,-0.04571 1.1342,-1.466262 2.26905,-3.156858 z"
       id="path17702" />
    <text
       xml:space="preserve"
       style="font-size:21.9012px;line-height:1.25;font-family:'Days Sans Black';-inkscape-font-specification:'Days Sans Black, ';stroke-width:0.821292;fill:#412b23;fill-opacity:1"
       x="68.114677"
       y="109.18582"
       id="text4744"><tspan
         sodipodi:role="line"
         id="tspan4742"
         style="stroke-width:0.821292;fill:#412b23;fill-opacity:1"
         x="68.114677"
         y="109.18582"></tspan><tspan
         sodipodi:role="line"
         style="stroke-width:0.821292;fill:#412b23;fill-opacity:1"
         id="tspan4746"
         x="68.114677"
         y="136.56232">ЮУГТК</tspan></text>
  </g>
</svg>
