<?xml version="1.0" encoding="UTF-8" standalone="no"?>
<!-- Created with Inkscape (http://www.inkscape.org/) -->

<svg
   width="132.02708mm"
   height="132.55624mm"
   viewBox="0 0 132.02708 132.55625"
   version="1.1"
   id="svg5"
   xmlns="http://www.w3.org/2000/svg"
   xmlns:svg="http://www.w3.org/2000/svg">
  <defs
     id="defs2">
    <rect
       x="64"
       y="264"
       width="257"
       height="97"
       id="rect22501" />
  </defs>
  <g
     id="layer1"
     transform="translate(-454.71838,46.938282)">
    <path
       style="fill:#ff7f2a;stroke-width:59.7635;stroke-linecap:square"
       d=""
       id="path1998"
       transform="matrix(0.26458333,0,0,0.26458333,-123.4948,-69.745094)" />
    <path
       style="fill:#ff7f2a;stroke-width:59.7635;stroke-linecap:square"
       d=""
       id="path2076"
       transform="matrix(0.26458333,0,0,0.26458333,-123.4948,-69.745094)" />
    <path
       style="fill:#ff7f2a;stroke-width:42.2592;stroke-linecap:square"
       d=""
       id="path2690"
       transform="matrix(0.26458333,0,0,0.26458333,-123.4948,-69.745094)" />
    <path
       style="fill:#ff7f2a;stroke-width:42.2592;stroke-linecap:square"
       d=""
       id="path2768"
       transform="matrix(0.26458333,0,0,0.26458333,-123.4948,-69.745094)" />
    <path
       style="fill:#ff7f2a;stroke-width:42.2592;stroke-linecap:square"
       d=""
       id="path2807"
       transform="matrix(0.26458333,0,0,0.26458333,-123.4948,-69.745094)" />
    <path
       style="fill:#ff7f2a;stroke-width:42.2592;stroke-linecap:square"
       d=""
       id="path2963"
       transform="matrix(0.26458333,0,0,0.26458333,-123.4948,-69.745094)" />
    <path
       style="fill:#ff7f2a;stroke-width:42.2592;stroke-linecap:square"
       d=""
       id="path3002"
       transform="matrix(0.26458333,0,0,0.26458333,-123.4948,-69.745094)" />
    <path
       style="fill:#ff7f2a;stroke-width:42.2592;stroke-linecap:square"
       d=""
       id="path3041"
       transform="matrix(0.26458333,0,0,0.26458333,-123.4948,-69.745094)" />
    <path
       style="fill:#ff7f2a;stroke-width:42.2592;stroke-linecap:square"
       d=""
       id="path3197"
       transform="matrix(0.26458333,0,0,0.26458333,-123.4948,-69.745094)" />
    <path
       style="fill:#ff7f2a;stroke-width:42.2592;stroke-linecap:square"
       d=""
       id="path3236"
       transform="matrix(0.26458333,0,0,0.26458333,-123.4948,-69.745094)" />
    <path
       style="fill:#ff7f2a;stroke-width:42.2592;stroke-linecap:square"
       d=""
       id="path3431"
       transform="matrix(0.26458333,0,0,0.26458333,-123.4948,-69.745094)" />
    <path
       style="fill:#ff7f2a;stroke-width:42.2592;stroke-linecap:square"
       d=""
       id="path3470"
       transform="matrix(0.26458333,0,0,0.26458333,-123.4948,-69.745094)" />
    <path
       style="fill:#ff7f2a;stroke-width:42.2592;stroke-linecap:square"
       d=""
       id="path3548"
       transform="matrix(0.26458333,0,0,0.26458333,-123.4948,-69.745094)" />
    <path
       style="fill:#ff7f2a;stroke-width:42.2592;stroke-linecap:square"
       d=""
       id="path3587"
       transform="matrix(0.26458333,0,0,0.26458333,-123.4948,-69.745094)" />
    <path
       style="fill:#ff7f2a;stroke-width:42.2592;stroke-linecap:square"
       d=""
       id="path3743"
       transform="matrix(0.26458333,0,0,0.26458333,-123.4948,-69.745094)" />
    <path
       style="fill:#ff7f2a;stroke-width:42.2592;stroke-linecap:square"
       d=""
       id="path4133"
       transform="matrix(0.26458333,0,0,0.26458333,-123.4948,-69.745094)" />
    <path
       style="fill:#ff7f2a;stroke-width:42.2592;stroke-linecap:square"
       d=""
       id="path4250"
       transform="matrix(0.26458333,0,0,0.26458333,-123.4948,-69.745094)" />
    <rect
       style="fill:#f6f0ee;fill-opacity:1;stroke-width:1.465;stroke-linecap:square"
       id="rect20907"
       width="132.02708"
       height="132.55624"
       x="454.71838"
       y="-46.938278"
       ry="38.591549" />
    <text
       xml:space="preserve"
       transform="matrix(0.26458333,0,0,0.26458333,454.71838,-46.938282)"
       id="text22499"
       style="fill:black;fill-opacity:1;line-height:1.25;stroke:none;font-family:Candara;font-style:normal;font-weight:normal;font-size:26.66666667px;-inkscape-font-specification:Candara;font-stretch:normal;font-variant:normal;white-space:pre;shape-inside:url(#rect22501)" />
    <path
       style="fill:#412b23;fill-opacity:1;stroke-width:0.369859"
       d="m 481.47484,63.448917 c -2.17452,-0.877531 -2.99238,-1.582561 -4.17319,-3.597472 -3.4815,-5.940739 -0.33594,-17.425357 8.62126,-31.47667 1.5223,-2.388074 3.50441,-5.28491 4.40467,-6.437402 0.90028,-1.152506 1.63684,-2.293605 1.63684,-2.535789 0,-0.242185 -0.47908,-1.046811 -1.06463,-1.788071 -2.84476,-3.601207 -6.69037,-9.617857 -9.13494,-14.2920559 -8.62798,-16.4973271 -7.66951,-26.9734471 2.62305,-28.6703611 4.29939,-0.708829 11.17581,1.208338 19.51906,5.44195 4.18606,2.124124 12.45246,7.368201 15.64132,9.9225816 l 1.13896,0.9123482 4.22399,-3.0367098 c 17.18103,-12.351781 31.81715,-16.408896 38.10773,-10.563403 0.53149,0.49386 1.32207,1.848711 1.75685,3.010779 2.68745,7.182868 -1.67649,19.40309501 -12.36569,34.627265 -2.86141,4.075398 -3.11537,4.572963 -2.61628,5.125858 1.80048,1.994539 7.3995,10.66489 9.69871,15.018945 5.95965,11.285865 7.47666,19.147128 4.73322,24.527729 -0.90041,1.765935 -1.41858,2.301683 -3.10274,3.208048 -7.31176,3.934964 -21.40179,-0.991699 -38.22721,-13.366369 l -2.17097,-1.596689 -1.71255,1.300345 c -7.45451,5.660219 -17.16148,11.07534 -23.97828,13.376512 -3.36677,1.136531 -4.60433,1.369228 -7.87777,1.481263 -3.21252,0.109962 -4.19415,0.0075 -5.68141,-0.592632 z m 11.19134,-9.314516 c 4.06796,-1.394153 9.88671,-4.281692 13.35287,-6.62633 1.52567,-1.032017 3.61335,-2.433505 4.63926,-3.114427 1.02595,-0.680921 2.05271,-1.463812 2.28173,-1.739757 0.33017,-0.397841 -1.18451,-2.121757 -7.3158,-8.326373 l -7.73216,-7.824642 -1.0687,1.353984 c -3.8088,4.825576 -9.28715,14.753077 -10.94661,19.836733 -1.18423,3.627748 -1.60232,7.17672 -0.89932,7.633688 0.79731,0.518268 4.26619,-0.0199 7.68873,-1.192876 z m 63.83397,-1.252597 c -0.008,-4.863935 -3.4373,-12.608449 -9.6608,-21.821666 -3.53167,-5.228267 -2.11793,-5.661265 -11.11212,3.40339 l -7.83251,7.893867 2.0997,1.552773 c 8.79572,6.504671 20.55338,11.883796 25.40078,11.620838 l 1.10958,-0.06019 z M 526.23284,31.667885 c 4.41752,-4.101553 11.19421,-11.288882 11.51276,-12.210386 0.27808,-0.804458 -15.29638,-16.4158858 -16.96289,-17.0031539 -0.39327,-0.1385316 -4.32255,3.5241259 -11.33418,10.5652209 -5.18907,5.210864 -5.85846,6.080758 -5.36192,6.968028 1.10567,1.975723 15.78345,16.435498 16.68329,16.435498 0.18775,0 2.64609,-2.13985 5.46294,-4.755207 z m -16.49598,-31.25858529 4.04636,-3.87738651 -4.03503,-2.789912 c -9.72961,-6.7272972 -20.51533,-11.2995192 -24.37187,-10.3315772 -0.87107,0.218616 -0.89794,0.316734 -0.69171,2.52522 0.38278,4.0990516 3.79872,12.3967106 7.23316,17.5700272 0.74275,1.1188168 1.56251,2.4503078 1.82167,2.9588608 0.25917,0.508567 1.30179,2.055348 2.31692,3.437318 l 1.84571,2.512681 3.89422,-4.063922 c 2.14181,-2.235158 5.71507,-5.808756 7.94057,-7.94130929 z M 546.03447,8.98356 c 7.27551,-10.838537 10.65524,-18.3157734 10.65524,-23.573509 0,-1.408263 -0.15468,-1.959326 -0.59769,-2.129324 -0.78048,-0.299498 -4.82886,0.455671 -7.68526,1.433594 -4.64938,1.591765 -13.14395,6.3043361 -18.51231,10.2701815 l -2.02425,1.4954087 7.84477,7.8717642 c 4.31461,4.3294796 7.93731,7.8344116 8.05045,7.7887426 0.11312,-0.04571 1.1342,-1.466262 2.26905,-3.156858 z"
       id="path17702" />
  </g>
</svg>
